<svg xmlns="http://www.w3.org/2000/svg"  viewBox="0 0 48 48" width="50px" height="50px"><circle cx="24" cy="24" r="20" fill="#ff3d00"/><path fill="#eceff1" d="M17,5.3c-0.7,0.3-1.4,0.5-2,0.9V20H4.4c-0.1,0.7-0.2,1.3-0.3,2H17V5.3z"/><path fill="#eceff1" d="M4.1,26c0.1,0.7,0.2,1.3,0.3,2H15v13.8c0.6,0.3,1.3,0.6,2,0.9V26H4.1z"/><path fill="#eceff1" d="M43.9,22c-0.1-0.7-0.2-1.3-0.3-2H23V4.1c-0.7,0-1.3,0.1-2,0.2V22H43.9z"/><path fill="#eceff1" d="M43.6,28c0.1-0.7,0.2-1.3,0.3-2H21v17.8c0.7,0.1,1.3,0.2,2,0.2V28H43.6z"/><path fill="#3f51b5" d="M43.9,26c0.1-0.7,0.1-1.3,0.1-2s0-1.3-0.1-2H21V4.2c-1.4,0.2-2.7,0.6-4,1V22H4.1C4,22.7,4,23.3,4,24	s0,1.3,0.1,2H17v16.7c1.3,0.5,2.6,0.8,4,1V26H43.9z"/></svg>