<svg xmlns="http://www.w3.org/2000/svg"  viewBox="0 0 48 48" width="50px" height="50px"><path fill="#eceff1" d="M4.249,27C5.288,33.887,9.819,39.622,16,42.325V27H4.249z"/><path fill="#eceff1" d="M22,43.899C22.658,43.964,23.325,44,24,44c10.023,0,18.3-7.381,19.751-17H22V43.899z"/><path fill="#eceff1" d="M16,5.675C9.819,8.378,5.288,14.113,4.249,21H16V5.675z"/><path fill="#eceff1" d="M24,4c-0.675,0-1.342,0.036-2,0.101V21h21.751C42.3,11.381,34.023,4,24,4z"/><path fill="#2196f3" d="M22,4.101c-2.116,0.21-4.13,0.757-6,1.574V21H4.249C4.101,21.981,4,22.978,4,24s0.101,2.019,0.249,3 H16v15.325c1.87,0.818,3.884,1.364,6,1.574V27h21.751C43.899,26.019,44,25.022,44,24s-0.101-2.019-0.249-3H22V4.101z"/></svg>