<?xml version="1.0" standalone="no"?>
<!DOCTYPE svg PUBLIC "-//W3C//DTD SVG 20010904//EN"
 "http://www.w3.org/TR/2001/REC-SVG-20010904/DTD/svg10.dtd">
<svg version="1.0" xmlns="http://www.w3.org/2000/svg"
 width="81.000000pt" height="81.000000pt" viewBox="0 0 81.000000 81.000000"
 preserveAspectRatio="xMidYMid meet">
<metadata>
Created by potrace 1.14, written by Peter Selinger 2001-2017
</metadata>
<g transform="translate(0.000000,81.000000) scale(0.100000,-0.100000)"
fill="#000000" stroke="none">
<path d="M363 780 c-29 -12 -45 -44 -37 -74 3 -13 26 -42 52 -63 25 -21 50
-42 56 -48 84 -78 122 -90 166 -50 39 35 27 67 -56 141 -116 105 -132 113
-181 94z"/>
<path d="M189 648 c-21 -18 -45 -60 -43 -75 1 -7 2 -23 3 -34 1 -26 52 -77
252 -252 90 -79 165 -137 177 -137 27 0 72 55 72 88 0 35 -22 77 -57 106 -15
13 -37 32 -49 42 -12 11 -52 46 -89 79 -37 33 -73 65 -79 70 -53 50 -150 125
-160 125 -7 0 -19 -6 -27 -12z"/>
<path d="M235 281 c-36 -11 -53 -26 -60 -54 -8 -28 0 -38 121 -148 69 -63 113
-75 152 -40 38 33 29 72 -28 121 -28 24 -69 60 -93 81 -46 41 -62 48 -92 40z"/>
</g>
</svg>
