<svg width="101" height="55" viewBox="0 0 101 55" fill="none" xmlns="http://www.w3.org/2000/svg">
<path d="M5.90142 18.6061C4.85903 18.6061 4.07724 18.3738 3.55604 17.9092C3.03485 17.4201 2.77425 16.7476 2.77425 15.8917C2.77425 15.0358 3.10931 14.3266 3.77941 13.7642C4.47434 13.1773 5.33059 12.8839 6.34816 12.8839C7.26645 12.8839 8.01102 13.1039 8.58185 13.5441C9.15268 13.9843 9.4381 14.6079 9.4381 15.4149C9.4381 16.393 9.11545 17.1756 8.47016 17.7625C7.82488 18.3249 6.96863 18.6061 5.90142 18.6061ZM2.32751 38.3039C1.53331 38.3039 0.9873 38.145 0.689475 37.8271C0.39165 37.5092 0.242737 37.0079 0.242737 36.3232C0.242737 36.1275 0.267556 35.7852 0.317193 35.2961C0.714294 30.821 1.37199 26.7494 2.29029 23.0812C2.48884 22.3231 2.81148 21.7974 3.25822 21.5039C3.72978 21.186 4.47434 21.0271 5.49191 21.0271C6.55912 21.0271 7.09272 21.455 7.09272 22.3109C7.09272 22.4332 7.0679 22.6655 7.01826 23.0079C5.90142 28.2411 5.23131 32.6306 5.00794 36.1764C4.95831 36.959 4.72253 37.5092 4.30061 37.8271C3.87869 38.145 3.22099 38.3039 2.32751 38.3039Z" fill="#03D0BF"/>
<path d="M12.7767 38.3039C11.8336 38.3039 11.1635 37.8149 10.7664 36.8367C10.3941 35.8585 10.208 34.2935 10.208 32.1415C10.208 28.9625 10.6671 25.9424 11.5854 23.0812C11.8088 22.3721 12.1686 21.8585 12.665 21.5406C13.1862 21.1983 13.906 21.0271 14.8243 21.0271C15.3206 21.0271 15.6681 21.0882 15.8666 21.2105C16.0652 21.3328 16.1645 21.5651 16.1645 21.9074C16.1645 22.2987 15.9783 23.179 15.606 24.5485C15.3579 25.5266 15.1593 26.3825 15.0104 27.1162C14.8615 27.8498 14.7374 28.7546 14.6381 29.8306C15.4571 27.7275 16.3754 26.0157 17.393 24.6952C18.4106 23.3747 19.4033 22.4332 20.3713 21.8707C21.364 21.3083 22.2699 21.0271 23.0889 21.0271C24.7021 21.0271 25.5087 21.8218 25.5087 23.4114C25.5087 24.3651 25.2357 26.0891 24.6897 28.5834C24.2182 30.7109 23.9824 32.117 23.9824 32.8018C23.9824 33.7799 24.3423 34.269 25.062 34.269C25.5584 34.269 26.1416 33.9756 26.8117 33.3887C27.5067 32.7773 28.425 31.7991 29.5666 30.4542C29.8644 30.1118 30.1995 29.9406 30.5718 29.9406C30.8944 29.9406 31.1426 30.0873 31.3163 30.3808C31.5149 30.6742 31.6142 31.0777 31.6142 31.5913C31.6142 32.5694 31.3784 33.3275 30.9068 33.8655C29.8396 35.1616 28.6855 36.2253 27.4446 37.0568C26.2285 37.8882 24.8386 38.3039 23.2751 38.3039C22.0093 38.3039 21.0538 37.9494 20.4085 37.2402C19.7632 36.5066 19.4406 35.455 19.4406 34.0856C19.4406 33.4009 19.6143 32.1782 19.9617 30.4175C20.2844 28.8769 20.4457 27.8131 20.4457 27.2262C20.4457 26.8349 20.3092 26.6393 20.0362 26.6393C19.7136 26.6393 19.2544 27.055 18.6588 27.8865C18.0879 28.6935 17.4923 29.7694 16.8718 31.1144C16.2762 32.4594 15.7922 33.8777 15.4199 35.3694C15.1469 36.5188 14.8243 37.3013 14.452 37.717C14.1045 38.1083 13.5461 38.3039 12.7767 38.3039Z" fill="#03D0BF"/>
<path d="M35.1543 39.1109C33.8638 39.1109 32.871 38.8175 32.1761 38.2306C31.506 37.6437 31.1709 36.9834 31.1709 36.2498C31.1709 35.614 31.4067 35.0638 31.8783 34.5991C32.3498 34.1345 33.0447 33.9022 33.963 33.9022C34.2857 33.9022 34.658 33.9389 35.0799 34.0122C35.5266 34.0611 35.8617 34.0978 36.085 34.1223C36.0602 33.4865 35.9113 32.8873 35.6383 32.3249C35.3901 31.7625 35.0675 31.2245 34.6704 30.7109C34.2733 30.1729 33.901 29.7083 33.5535 29.317C32.7841 30.7598 32.0148 31.9581 31.2454 32.9118C30.5008 33.8655 29.6818 34.7703 28.7883 35.6262C28.3416 36.0664 27.87 36.2865 27.3736 36.2865C26.9765 36.2865 26.6539 36.152 26.4057 35.883C26.1575 35.5895 26.0334 35.2349 26.0334 34.8192C26.0334 34.3301 26.2072 33.8777 26.5546 33.462L27.0386 32.8751C28.4036 31.2122 29.4336 29.8428 30.1285 28.7668C30.5753 28.0577 31.022 27.214 31.4687 26.2358C31.9403 25.2576 32.5484 23.9249 33.2929 22.2376C33.7645 21.1616 34.7448 20.6236 36.234 20.6236C36.9289 20.6236 37.4128 20.6847 37.6858 20.807C37.9589 20.9293 38.0954 21.1249 38.0954 21.3939C38.0954 21.5406 38.0457 21.7729 37.9464 22.0908C37.8472 22.4087 37.7107 22.7266 37.5369 23.0446C37.0902 23.9249 36.8668 24.6708 36.8668 25.2821C36.8668 25.6489 36.9909 26.0524 37.2391 26.4926C37.5121 26.9328 37.9216 27.483 38.4676 28.1432C39.2618 29.1703 39.8575 30.0507 40.2546 30.7843C40.6765 31.4935 40.8875 32.276 40.8875 33.1319C40.8875 34.159 40.6393 35.1371 40.1429 36.0664C39.6714 36.9712 39.0012 37.7048 38.1326 38.2673C37.2639 38.8297 36.2712 39.1109 35.1543 39.1109Z" fill="#03D0BF"/>
<path d="M59.2858 26.9328C59.2858 28.8646 58.8266 30.6987 57.9083 32.4349C57.0148 34.1467 55.8111 35.5406 54.2972 36.6166C52.8081 37.6926 51.2072 38.255 49.4947 38.3039C49.1721 43.0236 48.4399 46.9607 47.2983 50.1153C46.1566 53.2943 44.4813 54.8838 42.2725 54.8838C40.9323 54.8838 39.9395 54.407 39.2942 53.4533C38.6489 52.4996 38.3263 51.1791 38.3263 49.4917C38.3263 47.0952 38.8847 44.2952 40.0016 41.0917C41.1184 37.9127 42.8433 34.4035 45.1763 30.5642C45.1763 26.9939 45.1515 24.5118 45.1018 23.1179C45.077 22.4087 45.3624 21.8463 45.9581 21.4306C46.5537 21.0149 47.2983 20.807 48.1918 20.807C48.713 20.807 49.0852 20.917 49.3086 21.1371C49.5568 21.3328 49.6933 21.7363 49.7181 22.3476C49.7181 22.959 49.7305 23.4114 49.7553 23.7048C50.5495 22.7266 51.3313 22.0297 52.1007 21.614C52.8701 21.1738 53.6891 20.9537 54.5578 20.9537C55.9476 20.9537 57.0769 21.5039 57.9455 22.6044C58.839 23.7048 59.2858 25.1476 59.2858 26.9328ZM49.6809 34.7825C50.5744 34.5869 51.3934 34.1101 52.1379 33.352C52.9073 32.5694 53.5154 31.6157 53.9621 30.4908C54.4089 29.3415 54.6322 28.1432 54.6322 26.8961C54.6322 26.1625 54.4833 25.6122 54.1855 25.2454C53.8877 24.8542 53.4906 24.6585 52.9942 24.6585C52.1007 24.6585 51.0211 25.5878 49.7553 27.4463C49.7305 28.5223 49.7181 30.0996 49.7181 32.1782C49.7181 33.3031 49.7057 34.1712 49.6809 34.7825ZM42.5703 51.2891C43.2404 51.2891 43.7988 49.8463 44.2456 46.9607C44.6923 44.0996 44.9777 40.5293 45.1018 36.2498C44.0346 38.6952 43.1908 41.0306 42.5703 43.2559C41.9498 45.4812 41.6396 47.352 41.6396 48.8681C41.6396 49.6507 41.7389 50.2498 41.9374 50.6655C42.1112 51.0812 42.3221 51.2891 42.5703 51.2891Z" fill="#03D0BF"/>
<path d="M66.639 18.6061C65.5967 18.6061 64.8149 18.3738 64.2937 17.9092C63.7725 17.4201 63.5119 16.7476 63.5119 15.8917C63.5119 15.0358 63.8469 14.3266 64.517 13.7642C65.212 13.1773 66.0682 12.8839 67.0858 12.8839C68.0041 12.8839 68.7486 13.1039 69.3195 13.5441C69.8903 13.9843 70.1757 14.6079 70.1757 15.4149C70.1757 16.393 69.8531 17.1756 69.2078 17.7625C68.5625 18.3249 67.7063 18.6061 66.639 18.6061ZM63.0651 38.3039C62.2709 38.3039 61.7249 38.145 61.4271 37.8271C61.1293 37.5092 60.9804 37.0079 60.9804 36.3232C60.9804 36.1275 61.0052 35.7852 61.0548 35.2961C61.4519 30.821 62.1096 26.7494 63.0279 23.0812C63.2265 22.3231 63.5491 21.7974 63.9958 21.5039C64.4674 21.186 65.212 21.0271 66.2295 21.0271C67.2967 21.0271 67.8304 21.455 67.8304 22.3109C67.8304 22.4332 67.8055 22.6655 67.7559 23.0079C66.639 28.2411 65.9689 32.6306 65.7456 36.1764C65.6959 36.959 65.4602 37.5092 65.0382 37.8271C64.6163 38.145 63.9586 38.3039 63.0651 38.3039Z" fill="#03D0BF"/>
<path d="M72.0252 38.3039C71.0821 38.3039 70.412 37.8149 70.0149 36.8367C69.6426 35.8585 69.4565 34.2935 69.4565 32.1415C69.4565 28.9625 69.9156 25.9424 70.8339 23.0812C71.0573 22.3721 71.4171 21.8585 71.9135 21.5406C72.4347 21.1983 73.1545 21.0271 74.0728 21.0271C74.5691 21.0271 74.9166 21.0882 75.1151 21.2105C75.3137 21.3328 75.413 21.5651 75.413 21.9074C75.413 22.2987 75.2268 23.179 74.8545 24.5485C74.6064 25.5266 74.4078 26.3825 74.2589 27.1162C74.11 27.8498 73.9859 28.7546 73.8866 29.8306C74.7056 27.7275 75.6239 26.0157 76.6415 24.6952C77.6591 23.3747 78.6518 22.4332 79.6197 21.8707C80.6125 21.3083 81.5184 21.0271 82.3374 21.0271C83.9506 21.0271 84.7572 21.8218 84.7572 23.4114C84.7572 23.7293 84.6456 24.4996 84.4222 25.7223C84.2236 26.7004 84.1244 27.3118 84.1244 27.5563C84.1244 28.4122 84.4346 28.8402 85.0551 28.8402C85.75 28.8402 86.6435 28.3022 87.7355 27.2262C88.0581 26.9083 88.3932 26.7494 88.7407 26.7494C89.0633 26.7494 89.3115 26.8961 89.4852 27.1895C89.6838 27.4585 89.783 27.8253 89.783 28.29C89.783 29.1948 89.5349 29.9039 89.0385 30.4175C88.3436 31.1266 87.5245 31.738 86.5814 32.2515C85.6631 32.7406 84.6828 32.9852 83.6404 32.9852C82.325 32.9852 81.3198 32.655 80.6249 31.9948C79.9548 31.3345 79.6197 30.4419 79.6197 29.317C79.6197 28.9502 79.657 28.5834 79.7314 28.2166C79.7811 27.7275 79.8059 27.3974 79.8059 27.2262C79.8059 26.8349 79.6694 26.6393 79.3964 26.6393C79.0241 26.6393 78.5277 27.055 77.9073 27.8865C77.3116 28.6935 76.716 29.7694 76.1203 31.1144C75.5247 32.4594 75.0407 33.8777 74.6684 35.3694C74.3954 36.5188 74.0727 37.3013 73.7005 37.717C73.353 38.1083 72.7946 38.3039 72.0252 38.3039Z" fill="#03D0BF"/>
<path d="M90.1955 38.3039C89.029 38.3039 88.0859 37.8393 87.3661 36.9101C86.6712 35.9563 86.3237 34.648 86.3237 32.9852C86.3237 31.1511 86.4478 29.476 86.696 27.9598C86.9442 26.4192 87.3537 24.793 87.9245 23.0812C88.1727 22.3476 88.5202 21.8218 88.9669 21.5039C89.4137 21.186 90.121 21.0271 91.0889 21.0271C91.635 21.0271 92.0072 21.1127 92.2058 21.2838C92.4291 21.455 92.5408 21.7118 92.5408 22.0542C92.5408 22.2498 92.4043 22.9101 92.1313 24.0349C91.8831 24.9397 91.6846 25.759 91.5357 26.4926C91.0393 29.0603 90.7911 30.7721 90.7911 31.628C90.7911 32.1415 90.8532 32.5083 90.9773 32.7284C91.1013 32.924 91.2999 33.0218 91.5729 33.0218C91.9452 33.0218 92.4167 32.655 92.9876 31.9214C93.5584 31.1633 94.1541 30.0384 94.7745 28.5467C95.4198 27.0306 96.0279 25.2087 96.5987 23.0812C96.7973 22.3476 97.0951 21.8218 97.4922 21.5039C97.9141 21.186 98.5346 21.0271 99.3536 21.0271C99.8996 21.0271 100.284 21.1738 100.508 21.4673C100.756 21.7363 100.88 22.152 100.88 22.7144C100.88 23.3258 100.83 24.0105 100.731 24.7686C100.632 25.5022 100.52 26.2603 100.396 27.0428C100.148 28.6079 99.9492 30.0384 99.8003 31.3345C99.6514 32.6061 99.577 34.0611 99.577 35.6996C99.577 36.6288 99.3784 37.3013 98.9813 37.717C98.609 38.1083 97.9886 38.3039 97.1199 38.3039C96.2016 38.3039 95.5563 38.0716 95.184 37.607C94.8366 37.1179 94.6628 36.1887 94.6628 34.8192C94.6628 34.5502 94.6877 33.9511 94.7373 33.0218C94.3154 34.7336 93.6825 36.0419 92.8387 36.9467C92.0196 37.8515 91.1386 38.3039 90.1955 38.3039Z" fill="#03D0BF"/>
</svg>
