<svg width="940" height="1311" viewBox="0 0 940 1311" fill="none" xmlns="http://www.w3.org/2000/svg">
<g opacity="0.8">
<g opacity="0.5">
<rect width="49" height="30" rx="15" fill="#E0E0E0"/>
</g>
<g opacity="0.5">
<rect x="59.769" width="102" height="30" rx="15" fill="#E0E0E0"/>
</g>
<g opacity="0.5">
<rect x="172.539" width="84" height="30" rx="14.625" fill="#E0E0E0"/>
</g>
<g opacity="0.5">
<rect x="267.308" width="84" height="30" rx="14.625" fill="#E0E0E0"/>
</g>
<g opacity="0.5">
<rect x="362.077" width="102" height="30" rx="15" fill="#E0E0E0"/>
</g>
<g opacity="0.5">
<rect x="474.846" width="87" height="30" rx="14.625" fill="#E0E0E0"/>
</g>
<g opacity="0.5">
<rect x="572.615" width="92" height="30" rx="15" fill="#E0E0E0"/>
</g>
<rect width="167" height="31" transform="translate(0 70)" fill="#F5F5F5"/>
<rect y="121" width="300" height="168" rx="6" fill="#F5F5F5"/>
<path d="M34.292 173.538C34.5255 172.866 35.4754 172.866 35.7089 173.538L38.3558 181.153C38.4588 181.449 38.7353 181.65 39.049 181.657L47.1091 181.821C47.82 181.835 48.1136 182.739 47.5469 183.168L41.1227 188.039C40.8727 188.228 40.7671 188.553 40.8579 188.854L43.1924 196.57C43.3983 197.251 42.6299 197.809 42.0462 197.403L35.4288 192.798C35.1714 192.619 34.8296 192.619 34.5721 192.798L27.9547 197.403C27.3711 197.809 26.6026 197.251 26.8085 196.57L29.143 188.854C29.2338 188.553 29.1282 188.228 28.8782 188.039L22.454 183.168C21.8873 182.739 22.1809 181.835 22.8918 181.821L30.952 181.657C31.2656 181.65 31.5421 181.449 31.6451 181.153L34.292 173.538Z" fill="#E0E0E0"/>
<path d="M64.292 173.538C64.5255 172.866 65.4754 172.866 65.7089 173.538L68.3558 181.153C68.4588 181.449 68.7353 181.65 69.049 181.657L77.1091 181.821C77.82 181.835 78.1136 182.739 77.5469 183.168L71.1227 188.039C70.8727 188.228 70.7671 188.553 70.8579 188.854L73.1924 196.57C73.3983 197.251 72.6299 197.809 72.0462 197.403L65.4288 192.798C65.1714 192.619 64.8296 192.619 64.5721 192.798L57.9547 197.403C57.3711 197.809 56.6026 197.251 56.8085 196.57L59.143 188.854C59.2338 188.553 59.1282 188.228 58.8782 188.039L52.454 183.168C51.8873 182.739 52.1809 181.835 52.8918 181.821L60.952 181.657C61.2656 181.65 61.5421 181.449 61.6451 181.153L64.292 173.538Z" fill="#E0E0E0"/>
<path d="M94.292 173.538C94.5255 172.866 95.4754 172.866 95.7089 173.538L98.3558 181.153C98.4588 181.449 98.7353 181.65 99.049 181.657L107.109 181.821C107.82 181.835 108.114 182.739 107.547 183.168L101.123 188.039C100.873 188.228 100.767 188.553 100.858 188.854L103.192 196.57C103.398 197.251 102.63 197.809 102.046 197.403L95.4288 192.798C95.1714 192.619 94.8296 192.619 94.5721 192.798L87.9547 197.403C87.3711 197.809 86.6026 197.251 86.8085 196.57L89.143 188.854C89.2338 188.553 89.1282 188.228 88.8782 188.039L82.454 183.168C81.8873 182.739 82.1809 181.835 82.8918 181.821L90.952 181.657C91.2656 181.65 91.5421 181.449 91.6451 181.153L94.292 173.538Z" fill="#E0E0E0"/>
<path d="M124.292 173.538C124.526 172.866 125.475 172.866 125.709 173.538L128.356 181.153C128.459 181.449 128.735 181.65 129.049 181.657L137.109 181.821C137.82 181.835 138.114 182.739 137.547 183.168L131.123 188.039C130.873 188.228 130.767 188.553 130.858 188.854L133.192 196.57C133.398 197.251 132.63 197.809 132.046 197.403L125.429 192.798C125.171 192.619 124.83 192.619 124.572 192.798L117.955 197.403C117.371 197.809 116.603 197.251 116.808 196.57L119.143 188.854C119.234 188.553 119.128 188.228 118.878 188.039L112.454 183.168C111.887 182.739 112.181 181.835 112.892 181.821L120.952 181.657C121.266 181.65 121.542 181.449 121.645 181.153L124.292 173.538Z" fill="#E0E0E0"/>
<path opacity="0.3" d="M154.292 173.538C154.526 172.866 155.475 172.866 155.709 173.538L158.356 181.153C158.459 181.449 158.735 181.65 159.049 181.657L167.109 181.821C167.82 181.835 168.114 182.739 167.547 183.168L161.123 188.039C160.873 188.228 160.767 188.553 160.858 188.854L163.192 196.57C163.398 197.251 162.63 197.809 162.046 197.403L155.429 192.798C155.171 192.619 154.83 192.619 154.572 192.798L147.955 197.403C147.371 197.809 146.603 197.251 146.808 196.57L149.143 188.854C149.234 188.553 149.128 188.228 148.878 188.039L142.454 183.168C141.887 182.739 142.181 181.835 142.892 181.821L150.952 181.657C151.266 181.65 151.542 181.449 151.645 181.153L154.292 173.538Z" fill="#EEEEEE"/>
<g clip-path="url(#clip0_1330_10108)">
<path d="M154.292 173.538C154.526 172.866 155.475 172.866 155.709 173.538L158.356 181.153C158.459 181.449 158.735 181.65 159.049 181.657L167.109 181.821C167.82 181.835 168.114 182.739 167.547 183.168L161.123 188.039C160.873 188.228 160.767 188.553 160.858 188.854L163.192 196.57C163.398 197.251 162.63 197.809 162.046 197.403L155.429 192.798C155.171 192.619 154.83 192.619 154.572 192.798L147.955 197.403C147.371 197.809 146.603 197.251 146.808 196.57L149.143 188.854C149.234 188.553 149.128 188.228 148.878 188.039L142.454 183.168C141.887 182.739 142.181 181.835 142.892 181.821L150.952 181.657C151.266 181.65 151.542 181.449 151.645 181.153L154.292 173.538Z" fill="#E0E0E0"/>
</g>
<rect width="106" height="15" transform="translate(20 258)" fill="#EEEEEE"/>
<rect width="88" height="19" transform="translate(20 141)" fill="#EEEEEE"/>
<rect x="320" y="121" width="300" height="168" rx="6" fill="#F5F5F5"/>
<path d="M350 228.956C350 228.956 364.059 218.158 371.818 217.431C378.323 216.822 387.381 226.262 393.636 226.262C398.092 226.262 411.582 222.418 415.455 222.63C423.506 223.071 430.48 227.749 437.273 227.749C442.212 227.749 453.493 198.347 459.091 198.956C464.895 199.587 474.391 210.229 480.909 210.229C493.713 210.229 491.753 187.749 502.727 187.749C513.702 187.749 519.049 212 524.545 212C530.042 212 537.727 230.229 546.364 230.229C555 230.229 556.864 206.962 568.182 206.962C579.5 206.962 590 198.254 590 198.254" stroke="#CACACA" stroke-opacity="0.2" stroke-width="2" stroke-linecap="round" stroke-linejoin="round"/>
<rect x="522" y="143" width="70" height="18" rx="4" fill="#C1C1C1" fill-opacity="0.3"/>
<rect width="84" height="19" transform="translate(340 141)" fill="#EEEEEE"/>
<rect x="640" y="121" width="300" height="168" rx="6" fill="#F5F5F5"/>
<rect width="142" height="19" transform="translate(660 141)" fill="#EEEEEE"/>
<rect width="105" height="43" transform="translate(660 174)" fill="#EEEEEE"/>
<g opacity="0.2">
<g clip-path="url(#clip1_1330_10108)">
<rect y="309" width="460" height="280" rx="6" fill="#C9C9C9"/>
<path d="M336.984 399.66C336.984 397.629 338.632 395.973 340.661 396.066C357.12 396.819 372.98 402.641 386.044 412.779C400.079 423.669 410.09 438.922 414.498 456.131C418.906 473.341 417.461 491.528 410.39 507.825C403.318 524.122 391.024 537.601 375.445 546.139C359.866 554.676 341.888 557.784 324.347 554.975C306.806 552.165 290.699 543.597 278.566 530.621C266.432 517.645 258.963 500.999 257.336 483.309C255.822 466.842 259.449 450.342 267.671 436.063C268.685 434.303 270.967 433.805 272.679 434.898L286.706 443.858C288.418 444.951 288.907 447.22 287.929 449C282.556 458.771 280.209 469.952 281.235 481.111C282.374 493.494 287.603 505.146 296.096 514.229C304.589 523.312 315.864 529.31 328.143 531.277C340.422 533.244 353.006 531.067 363.912 525.091C374.817 519.115 383.423 509.68 388.373 498.272C393.322 486.864 394.334 474.133 391.249 462.086C388.163 450.04 381.156 439.363 371.331 431.74C362.478 424.87 351.791 420.831 340.664 420.102C338.637 419.969 336.988 418.335 336.988 416.304L336.984 399.66Z" fill="white" stroke="#C9C9C9" stroke-width="2.70992"/>
<path opacity="0.6" d="M272.72 434.834C271.009 433.739 270.503 431.458 271.676 429.8C282.26 414.827 297.674 403.941 315.324 398.974C317.28 398.424 319.26 399.663 319.72 401.642L323.488 417.853C323.948 419.832 322.712 421.797 320.768 422.386C309.207 425.886 299.084 433.035 291.919 442.759C290.714 444.395 288.448 444.902 286.738 443.807L272.72 434.834Z" fill="white" stroke="#C9C9C9" stroke-width="2.70992"/>
<path opacity="0.4" d="M319.794 401.625C319.336 399.645 320.568 397.661 322.566 397.295C326.083 396.649 329.64 396.241 333.212 396.071C335.241 395.975 336.891 397.629 336.894 399.66L336.917 416.304C336.92 418.335 335.273 419.971 333.246 420.108C331.484 420.226 329.727 420.428 327.983 420.712C325.979 421.039 324.004 419.819 323.546 417.84L319.794 401.625Z" fill="white" stroke="#C9C9C9" stroke-width="2.70992"/>
</g>
<rect x="20" y="329" width="94" height="26" rx="13" fill="white"/>
<g opacity="0.45">
<rect x="122" y="329" width="94" height="26" rx="13" fill="white"/>
</g>
<g opacity="0.45">
<rect x="224" y="329" width="94" height="26" rx="13" fill="white"/>
</g>
<g clip-path="url(#clip2_1330_10108)">
<rect x="480" y="309" width="460" height="280" rx="6" fill="#9A9A9A"/>
</g>
<rect x="500" y="329" width="94" height="26" rx="13" fill="white"/>
<g opacity="0.45">
<rect x="602" y="329" width="94" height="26" rx="13" fill="white"/>
</g>
<g opacity="0.45">
<rect x="704" y="329" width="94" height="26" rx="13" fill="white"/>
</g>
<path d="M816.984 399.66C816.984 397.629 818.632 395.973 820.661 396.066C837.12 396.819 852.98 402.641 866.044 412.779C880.079 423.669 890.09 438.922 894.498 456.131C898.906 473.341 897.461 491.528 890.39 507.825C883.318 524.122 871.024 537.601 855.445 546.139C839.866 554.676 821.888 557.784 804.347 554.975C786.806 552.165 770.699 543.597 758.566 530.621C746.432 517.645 738.963 500.999 737.336 483.309C735.822 466.842 739.449 450.342 747.671 436.063C748.685 434.303 750.967 433.805 752.679 434.898L766.706 443.858C768.418 444.951 768.907 447.22 767.929 449C762.556 458.771 760.209 469.952 761.235 481.111C762.374 493.494 767.603 505.146 776.096 514.229C784.589 523.312 795.864 529.31 808.143 531.277C820.422 533.244 833.006 531.067 843.912 525.091C854.817 519.115 863.423 509.68 868.373 498.272C873.322 486.864 874.334 474.133 871.249 462.086C868.163 450.04 861.156 439.363 851.331 431.74C842.478 424.87 831.791 420.831 820.664 420.102C818.637 419.969 816.988 418.335 816.988 416.304L816.984 399.66Z" fill="white" stroke="#9A9A9A" stroke-width="2.70992"/>
<path opacity="0.6" d="M752.72 434.834C751.009 433.739 750.503 431.458 751.676 429.8C762.26 414.827 777.674 403.941 795.324 398.974C797.28 398.424 799.26 399.663 799.72 401.642L803.488 417.853C803.948 419.832 802.712 421.797 800.768 422.386C789.207 425.886 779.084 433.035 771.919 442.759C770.714 444.395 768.448 444.902 766.738 443.807L752.72 434.834Z" fill="white" stroke="#9A9A9A" stroke-width="2.70992"/>
<path opacity="0.4" d="M799.794 401.625C799.336 399.645 800.568 397.661 802.566 397.295C806.083 396.649 809.64 396.241 813.212 396.071C815.241 395.975 816.891 397.629 816.894 399.66L816.917 416.304C816.92 418.335 815.273 419.971 813.246 420.108C811.484 420.226 809.727 420.428 807.983 420.712C805.979 421.039 804.004 419.819 803.546 417.84L799.794 401.625Z" fill="white" stroke="#9A9A9A" stroke-width="2.70992"/>
</g>
<rect width="167" height="31" transform="translate(0 638)" fill="#F5F5F5"/>
<rect x="892" y="629" width="48" height="40" rx="20" fill="#EEEEEE"/>
<rect y="689" width="940" height="50" rx="10" fill="#EEEEEE"/>
<rect x="16.5" y="703.5" width="19" height="19" rx="3.5" fill="white" fill-opacity="0.05"/>
<rect x="16.5" y="703.5" width="19" height="19" rx="3.5" stroke="#F5F5F5"/>
<rect y="749" width="940" height="562" rx="10" fill="white"/>
<path d="M16 773C16 770.791 17.7909 769 20 769H928C930.209 769 932 770.791 932 773V825C932 827.209 930.209 829 928 829H20C17.7909 829 16 827.209 16 825V773Z" fill="white"/>
<rect x="16.5" y="789.5" width="19" height="19" rx="3.5" fill="white" fill-opacity="0.05"/>
<rect x="16.5" y="789.5" width="19" height="19" rx="3.5" stroke="#F5F5F5"/>
<path d="M109.428 805.387C110.572 807.817 112.347 809.896 114.569 811.406C116.791 812.916 119.377 813.802 122.058 813.97C124.739 814.139 127.416 813.585 129.81 812.365C132.204 811.146 134.226 809.306 135.665 807.037C137.104 804.769 137.908 802.156 137.993 799.471C138.077 796.786 137.439 794.128 136.145 791.774C134.851 789.42 132.948 787.456 130.636 786.089C128.324 784.721 125.686 784 123 784" stroke="#C9C9C9" stroke-width="2" stroke-linecap="round" stroke-linejoin="round"/>
<rect width="60" height="16" transform="translate(194 791)" fill="#F5F5F5"/>
<g opacity="0.2">
<circle cx="334" cy="799" r="10" fill="#C9C9C9"/>
<circle cx="374" cy="799" r="10" fill="#C9C9C9"/>
<circle cx="414" cy="799" r="10" fill="#C9C9C9"/>
</g>
<rect width="347" height="19" transform="translate(494 789.5)" fill="#F5F5F5"/>
<path fill-rule="evenodd" clip-rule="evenodd" d="M919.085 802.835L922.397 799L919.085 795.165C918.805 794.841 918.805 794.316 919.085 793.993C919.364 793.669 919.818 793.669 920.097 793.993L923.915 798.414C924.195 798.738 924.195 799.262 923.915 799.586L920.097 804.007C919.961 804.165 919.779 804.25 919.591 804.25C919.403 804.25 919.221 804.165 919.085 804.007C918.805 803.683 918.805 803.159 919.085 802.835Z" fill="#C9C9C9"/>
<path d="M16 769H932H16ZM932 825C932 827.485 929.985 829.5 927.5 829.5H20.5C18.0147 829.5 16 827.485 16 825C16 826.933 17.7909 828.5 20 828.5H928C930.209 828.5 932 826.933 932 825ZM16 829V769V829ZM932 769V829V769Z" fill="#F5F5F5"/>
<path d="M16 833C16 830.791 17.7909 829 20 829H928C930.209 829 932 830.791 932 833V885C932 887.209 930.209 889 928 889H20C17.7909 889 16 887.209 16 885V833Z" fill="white"/>
<rect x="16.5" y="849.5" width="19" height="19" rx="3.5" fill="white" fill-opacity="0.05"/>
<rect x="16.5" y="849.5" width="19" height="19" rx="3.5" stroke="#F5F5F5"/>
<path d="M109.428 865.387C110.572 867.817 112.347 869.896 114.569 871.406C116.791 872.916 119.377 873.802 122.058 873.97C124.739 874.139 127.416 873.585 129.81 872.365C132.204 871.146 134.226 869.306 135.665 867.037C137.104 864.769 137.908 862.156 137.993 859.471C138.077 856.786 137.439 854.128 136.145 851.774C134.851 849.42 132.948 847.456 130.636 846.089C128.324 844.721 125.686 844 123 844" stroke="#C9C9C9" stroke-width="2" stroke-linecap="round" stroke-linejoin="round"/>
<rect width="60" height="16" transform="translate(194 851)" fill="#F5F5F5"/>
<g opacity="0.2">
<circle cx="334" cy="859" r="10" fill="#C9C9C9"/>
<circle cx="374" cy="859" r="10" fill="#C9C9C9"/>
<circle cx="414" cy="859" r="10" fill="#C9C9C9"/>
</g>
<rect width="347" height="19" transform="translate(494 849.5)" fill="#F5F5F5"/>
<path fill-rule="evenodd" clip-rule="evenodd" d="M919.085 862.835L922.397 859L919.085 855.165C918.805 854.841 918.805 854.316 919.085 853.993C919.364 853.669 919.818 853.669 920.097 853.993L923.915 858.414C924.195 858.738 924.195 859.262 923.915 859.586L920.097 864.007C919.961 864.165 919.779 864.25 919.591 864.25C919.403 864.25 919.221 864.165 919.085 864.007C918.805 863.683 918.805 863.159 919.085 862.835Z" fill="#C9C9C9"/>
<path d="M16 829H932H16ZM932 885C932 887.485 929.985 889.5 927.5 889.5H20.5C18.0147 889.5 16 887.485 16 885C16 886.933 17.7909 888.5 20 888.5H928C930.209 888.5 932 886.933 932 885ZM16 889V829V889ZM932 829V889V829Z" fill="#F5F5F5"/>
<path d="M16 893C16 890.791 17.7909 889 20 889H928C930.209 889 932 890.791 932 893V945C932 947.209 930.209 949 928 949H20C17.7909 949 16 947.209 16 945V893Z" fill="white"/>
<rect x="16.5" y="909.5" width="19" height="19" rx="3.5" fill="white" fill-opacity="0.05"/>
<rect x="16.5" y="909.5" width="19" height="19" rx="3.5" stroke="#F5F5F5"/>
<path d="M109.428 925.387C110.572 927.817 112.347 929.896 114.569 931.406C116.791 932.916 119.377 933.802 122.058 933.97C124.739 934.139 127.416 933.585 129.81 932.365C132.204 931.146 134.226 929.306 135.665 927.037C137.104 924.769 137.908 922.156 137.993 919.471C138.077 916.786 137.439 914.128 136.145 911.774C134.851 909.42 132.948 907.456 130.636 906.089C128.324 904.721 125.686 904 123 904" stroke="#C9C9C9" stroke-width="2" stroke-linecap="round" stroke-linejoin="round"/>
<rect width="60" height="16" transform="translate(194 911)" fill="#F5F5F5"/>
<g opacity="0.2">
<circle cx="334" cy="919" r="10" fill="#C9C9C9"/>
<circle cx="374" cy="919" r="10" fill="#C9C9C9"/>
<circle cx="414" cy="919" r="10" fill="#C9C9C9"/>
</g>
<rect width="347" height="19" transform="translate(494 909.5)" fill="#F5F5F5"/>
<path fill-rule="evenodd" clip-rule="evenodd" d="M919.085 922.835L922.397 919L919.085 915.165C918.805 914.841 918.805 914.316 919.085 913.993C919.364 913.669 919.818 913.669 920.097 913.993L923.915 918.414C924.195 918.738 924.195 919.262 923.915 919.586L920.097 924.007C919.961 924.165 919.779 924.25 919.591 924.25C919.403 924.25 919.221 924.165 919.085 924.007C918.805 923.683 918.805 923.159 919.085 922.835Z" fill="#C9C9C9"/>
<path d="M16 889H932H16ZM932 945C932 947.485 929.985 949.5 927.5 949.5H20.5C18.0147 949.5 16 947.485 16 945C16 946.933 17.7909 948.5 20 948.5H928C930.209 948.5 932 946.933 932 945ZM16 949V889V949ZM932 889V949V889Z" fill="#F5F5F5"/>
<path d="M16 953C16 950.791 17.7909 949 20 949H928C930.209 949 932 950.791 932 953V1005C932 1007.21 930.209 1009 928 1009H20C17.7909 1009 16 1007.21 16 1005V953Z" fill="white"/>
<rect x="16.5" y="969.5" width="19" height="19" rx="3.5" fill="white" fill-opacity="0.05"/>
<rect x="16.5" y="969.5" width="19" height="19" rx="3.5" stroke="#F5F5F5"/>
<path d="M109.428 985.387C110.572 987.817 112.347 989.896 114.569 991.406C116.791 992.916 119.377 993.802 122.058 993.97C124.739 994.139 127.416 993.585 129.81 992.365C132.204 991.146 134.226 989.306 135.665 987.037C137.104 984.769 137.908 982.156 137.993 979.471C138.077 976.786 137.439 974.128 136.145 971.774C134.851 969.42 132.948 967.456 130.636 966.089C128.324 964.721 125.686 964 123 964" stroke="#C9C9C9" stroke-width="2" stroke-linecap="round" stroke-linejoin="round"/>
<rect width="60" height="16" transform="translate(194 971)" fill="#F5F5F5"/>
<g opacity="0.2">
<circle cx="334" cy="979" r="10" fill="#C9C9C9"/>
<circle cx="374" cy="979" r="10" fill="#C9C9C9"/>
<circle cx="414" cy="979" r="10" fill="#C9C9C9"/>
</g>
<rect width="347" height="19" transform="translate(494 969.5)" fill="#F5F5F5"/>
<path fill-rule="evenodd" clip-rule="evenodd" d="M919.085 982.835L922.397 979L919.085 975.165C918.805 974.841 918.805 974.316 919.085 973.993C919.364 973.669 919.818 973.669 920.097 973.993L923.915 978.414C924.195 978.738 924.195 979.262 923.915 979.586L920.097 984.007C919.961 984.165 919.779 984.25 919.591 984.25C919.403 984.25 919.221 984.165 919.085 984.007C918.805 983.683 918.805 983.159 919.085 982.835Z" fill="#C9C9C9"/>
<path d="M16 949H932H16ZM932 1005C932 1007.49 929.985 1009.5 927.5 1009.5H20.5C18.0147 1009.5 16 1007.49 16 1005C16 1006.93 17.7909 1008.5 20 1008.5H928C930.209 1008.5 932 1006.93 932 1005ZM16 1009V949V1009ZM932 949V1009V949Z" fill="#F5F5F5"/>
<path d="M16 1013C16 1010.79 17.7909 1009 20 1009H928C930.209 1009 932 1010.79 932 1013V1065C932 1067.21 930.209 1069 928 1069H20C17.7909 1069 16 1067.21 16 1065V1013Z" fill="white"/>
<rect x="16.5" y="1029.5" width="19" height="19" rx="3.5" fill="white" fill-opacity="0.05"/>
<rect x="16.5" y="1029.5" width="19" height="19" rx="3.5" stroke="#F5F5F5"/>
<path d="M109.428 1045.39C110.572 1047.82 112.347 1049.9 114.569 1051.41C116.791 1052.92 119.377 1053.8 122.058 1053.97C124.739 1054.14 127.416 1053.58 129.81 1052.37C132.204 1051.15 134.226 1049.31 135.665 1047.04C137.104 1044.77 137.908 1042.16 137.993 1039.47C138.077 1036.79 137.439 1034.13 136.145 1031.77C134.851 1029.42 132.948 1027.46 130.636 1026.09C128.324 1024.72 125.686 1024 123 1024" stroke="#C9C9C9" stroke-width="2" stroke-linecap="round" stroke-linejoin="round"/>
<rect width="60" height="16" transform="translate(194 1031)" fill="#F5F5F5"/>
<g opacity="0.2">
<circle cx="334" cy="1039" r="10" fill="#C9C9C9"/>
<circle cx="374" cy="1039" r="10" fill="#C9C9C9"/>
<circle cx="414" cy="1039" r="10" fill="#C9C9C9"/>
</g>
<rect width="347" height="19" transform="translate(494 1029.5)" fill="#F5F5F5"/>
<path fill-rule="evenodd" clip-rule="evenodd" d="M919.085 1042.83L922.397 1039L919.085 1035.17C918.805 1034.84 918.805 1034.32 919.085 1033.99C919.364 1033.67 919.818 1033.67 920.097 1033.99L923.915 1038.41C924.195 1038.74 924.195 1039.26 923.915 1039.59L920.097 1044.01C919.961 1044.16 919.779 1044.25 919.591 1044.25C919.403 1044.25 919.221 1044.16 919.085 1044.01C918.805 1043.68 918.805 1043.16 919.085 1042.83Z" fill="#C9C9C9"/>
<path d="M16 1009H932H16ZM932 1065C932 1067.49 929.985 1069.5 927.5 1069.5H20.5C18.0147 1069.5 16 1067.49 16 1065C16 1066.93 17.7909 1068.5 20 1068.5H928C930.209 1068.5 932 1066.93 932 1065ZM16 1069V1009V1069ZM932 1009V1069V1009Z" fill="#F5F5F5"/>
<path d="M16 1073C16 1070.79 17.7909 1069 20 1069H928C930.209 1069 932 1070.79 932 1073V1125C932 1127.21 930.209 1129 928 1129H20C17.7909 1129 16 1127.21 16 1125V1073Z" fill="white"/>
<rect x="16.5" y="1089.5" width="19" height="19" rx="3.5" fill="white" fill-opacity="0.05"/>
<rect x="16.5" y="1089.5" width="19" height="19" rx="3.5" stroke="#F5F5F5"/>
<path d="M109.428 1105.39C110.572 1107.82 112.347 1109.9 114.569 1111.41C116.791 1112.92 119.377 1113.8 122.058 1113.97C124.739 1114.14 127.416 1113.58 129.81 1112.37C132.204 1111.15 134.226 1109.31 135.665 1107.04C137.104 1104.77 137.908 1102.16 137.993 1099.47C138.077 1096.79 137.439 1094.13 136.145 1091.77C134.851 1089.42 132.948 1087.46 130.636 1086.09C128.324 1084.72 125.686 1084 123 1084" stroke="#C9C9C9" stroke-width="2" stroke-linecap="round" stroke-linejoin="round"/>
<rect width="60" height="16" transform="translate(194 1091)" fill="#F5F5F5"/>
<g opacity="0.2">
<circle cx="334" cy="1099" r="10" fill="#C9C9C9"/>
<circle cx="374" cy="1099" r="10" fill="#C9C9C9"/>
<circle cx="414" cy="1099" r="10" fill="#C9C9C9"/>
</g>
<rect width="347" height="19" transform="translate(494 1089.5)" fill="#F5F5F5"/>
<path fill-rule="evenodd" clip-rule="evenodd" d="M919.085 1102.83L922.397 1099L919.085 1095.17C918.805 1094.84 918.805 1094.32 919.085 1093.99C919.364 1093.67 919.818 1093.67 920.097 1093.99L923.915 1098.41C924.195 1098.74 924.195 1099.26 923.915 1099.59L920.097 1104.01C919.961 1104.16 919.779 1104.25 919.591 1104.25C919.403 1104.25 919.221 1104.16 919.085 1104.01C918.805 1103.68 918.805 1103.16 919.085 1102.83Z" fill="#C9C9C9"/>
<path d="M16 1069H932H16ZM932 1125C932 1127.49 929.985 1129.5 927.5 1129.5H20.5C18.0147 1129.5 16 1127.49 16 1125C16 1126.93 17.7909 1128.5 20 1128.5H928C930.209 1128.5 932 1126.93 932 1125ZM16 1129V1069V1129ZM932 1069V1129V1069Z" fill="#F5F5F5"/>
</g>
<defs>
<clipPath id="clip0_1330_10108">
<rect width="11.625" height="30" fill="white" transform="translate(140 171.5)"/>
</clipPath>
<clipPath id="clip1_1330_10108">
<rect width="460" height="280" fill="white" transform="translate(0 309)"/>
</clipPath>
<clipPath id="clip2_1330_10108">
<rect width="460" height="280" fill="white" transform="translate(480 309)"/>
</clipPath>
</defs>
</svg>
